<?xml version="1.0" standalone="no"?>
<!DOCTYPE svg PUBLIC "-//W3C//DTD SVG 20010904//EN"
 "http://www.w3.org/TR/2001/REC-SVG-20010904/DTD/svg10.dtd">
<svg version="1.0" xmlns="http://www.w3.org/2000/svg"
 width="520.000000pt" height="520.000000pt" viewBox="0 0 520.000000 520.000000"
 preserveAspectRatio="xMidYMid meet">
<metadata>
Created by potrace 1.14, written by Peter Selinger 2001-2017
</metadata>
<g transform="translate(0.000000,520.000000) scale(0.100000,-0.100000)"
fill="#000000" stroke="none">
<path d="M938 5173 c-60 -38 -62 -53 -55 -426 l7 -339 -30 -34 c-37 -43 -55
-105 -43 -153 5 -20 6 -49 1 -66 -13 -49 10 -123 51 -162 18 -17 19 -45 26
-483 l7 -465 -115 -220 -116 -220 -252 -270 c-138 -148 -260 -283 -270 -300
-24 -39 -24 -82 1 -123 31 -51 71 -63 186 -55 l98 6 -19 -29 c-10 -16 -79
-116 -152 -223 -146 -212 -163 -240 -163 -271 0 -36 31 -90 61 -105 38 -20 77
-18 339 14 159 19 226 24 228 16 1 -6 -11 -76 -28 -155 -34 -161 -36 -199 -15
-239 15 -29 68 -61 102 -61 11 0 223 72 473 160 249 88 456 160 460 160 4 0
49 -120 99 -268 51 -147 99 -281 107 -297 17 -36 54 -60 107 -69 22 -4 37 -13
37 -21 0 -8 23 -41 50 -74 43 -52 59 -63 105 -76 42 -13 61 -25 82 -53 51 -70
86 -102 120 -108 28 -5 38 -15 58 -54 32 -63 67 -90 117 -90 59 0 91 22 124
84 19 36 35 56 47 56 35 0 74 29 114 87 36 52 48 61 96 76 44 14 66 29 106 73
28 31 51 64 51 74 0 13 11 20 37 25 55 10 91 32 108 65 9 17 57 149 106 293
50 144 94 266 98 270 4 4 213 -64 464 -153 252 -88 467 -160 480 -160 36 0 87
38 104 77 14 35 13 46 -21 212 -20 95 -35 175 -34 176 2 1 104 -10 228 -26
263 -33 317 -35 348 -13 46 32 66 109 41 156 -7 12 -77 116 -156 231 -80 115
-147 216 -150 224 -5 12 12 13 99 11 116 -3 144 5 171 52 22 36 22 98 -1 131
-9 14 -129 146 -267 293 l-250 268 -116 221 -115 222 9 1023 c8 827 7 1028 -4
1053 -23 57 -107 87 -162 57 -17 -8 -535 -465 -945 -832 -22 -19 -24 -19 -51
-3 -59 35 -96 24 -241 -73 -47 -31 -91 -60 -97 -64 -9 -5 -29 28 -67 108 -59
125 -84 151 -147 151 -67 0 -86 -20 -147 -145 -30 -63 -56 -116 -57 -118 -1
-2 -58 33 -126 78 -134 86 -161 94 -225 64 l-34 -16 -452 403 c-249 221 -465
413 -480 427 -36 33 -111 40 -150 15z m660 -625 c323 -286 595 -528 605 -537
20 -17 17 -7 -56 152 -20 42 -32 77 -28 77 4 0 81 -48 171 -106 89 -58 163
-104 164 -102 1 2 35 74 76 161 41 86 77 154 81 150 4 -5 39 -75 78 -158 39
-82 75 -149 80 -148 5 2 80 48 166 104 86 56 158 99 161 97 3 -3 -18 -54 -46
-113 -27 -59 -50 -112 -50 -117 0 -4 270 232 601 527 331 294 605 535 611 535
6 0 8 -44 4 -122 -3 -68 -8 -532 -11 -1033 l-5 -910 124 -234 124 -235 253
-273 c140 -150 256 -278 258 -284 3 -10 -282 -5 -372 7 l-39 5 20 -28 c154
-219 422 -617 420 -622 -2 -4 -142 10 -313 31 -170 20 -317 37 -326 38 -14 0
-10 -33 33 -236 26 -131 47 -239 44 -241 -2 -2 -230 75 -505 173 -276 97 -503
175 -505 173 -1 -2 -54 -152 -117 -333 l-114 -330 -160 -38 c-88 -21 -164 -36
-170 -34 -5 2 -59 43 -120 91 -60 48 -115 89 -122 92 -7 3 -64 -36 -128 -86
-63 -51 -121 -94 -127 -96 -7 -2 -84 13 -172 34 l-158 37 -114 329 c-62 180
-115 330 -118 332 -2 2 -224 -73 -492 -168 -269 -95 -496 -174 -506 -176 -14
-4 -9 29 33 233 27 131 47 239 45 241 -4 4 -593 -63 -635 -73 -17 -3 -22 -1
-18 8 2 7 102 154 221 327 119 173 215 315 213 316 -1 0 -92 -3 -201 -7 -110
-5 -201 -6 -204 -4 -2 3 112 130 255 283 l259 278 125 240 125 240 -4 523 -4
522 -24 0 c-25 0 -54 34 -54 64 0 28 29 56 59 56 25 0 24 1 -8 18 -19 9 -39
24 -44 33 -17 27 1 70 33 82 l30 11 0 373 c0 205 3 373 6 373 3 0 270 -235
592 -522z m1122 -3996 l113 -88 91 22 c50 12 93 20 95 18 3 -3 -10 -19 -28
-38 -22 -23 -49 -37 -87 -46 -50 -12 -57 -17 -96 -76 -24 -35 -46 -64 -50 -64
-4 0 -15 17 -23 37 l-16 38 -55 -105 c-30 -58 -58 -108 -62 -112 -4 -4 -32 42
-62 102 -30 61 -57 110 -60 110 -3 0 -13 -19 -21 -42 l-15 -42 -49 71 c-45 65
-52 71 -99 83 -45 11 -116 60 -116 81 0 4 42 -3 93 -15 l93 -22 109 87 c61 49
115 88 121 89 7 0 63 -40 124 -88z"/>
<path d="M1065 3954 l7 -969 -129 -247 -130 -247 -200 -213 c-109 -117 -203
-219 -207 -226 -6 -10 30 -11 185 -6 l192 7 -33 -49 c-19 -27 -118 -172 -222
-322 -144 -209 -182 -271 -165 -267 49 10 550 66 570 63 l23 -3 -46 -220 c-26
-121 -45 -222 -44 -224 3 -3 893 308 903 315 1 2 -11 45 -28 96 -28 84 -36 98
-79 133 -26 22 -68 56 -93 78 l-47 38 -332 -36 c-183 -19 -334 -34 -336 -33
-1 2 35 70 82 150 46 81 84 151 84 155 -1 4 -59 51 -130 103 -71 52 -129 98
-130 101 0 6 39 10 255 25 l90 6 -5 197 c-3 108 -4 198 -2 200 4 7 11 -2 189
-219 l161 -195 229 -86 229 -87 223 62 224 62 59 117 58 117 20 208 c34 372
34 384 15 423 -10 19 -28 45 -40 59 l-23 25 76 183 c42 100 79 182 82 182 5 0
138 -316 147 -349 3 -11 -9 -37 -31 -66 -43 -56 -43 -45 -16 -356 27 -313 24
-301 90 -430 l58 -114 222 -61 223 -62 231 88 231 88 163 199 c90 109 168 203
173 208 8 7 10 -52 7 -191 l-3 -202 90 -6 c226 -16 255 -19 255 -25 -1 -3 -59
-49 -130 -101 -71 -52 -129 -99 -130 -104 0 -5 36 -72 80 -148 44 -77 80 -145
80 -150 0 -6 -19 -7 -47 -4 -27 4 -176 20 -332 37 l-283 30 -32 -25 c-17 -14
-59 -51 -93 -83 -56 -53 -64 -65 -91 -149 l-29 -90 445 -158 c244 -86 447
-155 449 -152 3 3 -16 105 -41 227 -25 122 -45 223 -44 224 2 1 138 -15 303
-35 165 -20 301 -36 303 -35 1 2 -87 132 -196 291 -109 159 -207 302 -218 318
l-18 29 193 -7 194 -7 -34 38 c-18 21 -112 123 -208 226 l-176 189 -132 251
-132 252 10 959 c6 527 8 960 5 963 -2 3 -264 -226 -581 -509 l-576 -513 -54
-3 c-32 -2 -55 1 -55 7 0 5 15 44 34 85 19 42 33 76 31 76 -2 0 -50 -30 -105
-66 -56 -36 -103 -64 -105 -62 -2 2 -31 62 -65 133 l-61 129 -47 -99 c-27 -55
-54 -115 -61 -133 -8 -18 -19 -31 -25 -29 -6 3 -53 32 -105 66 -52 33 -96 59
-99 57 -2 -2 10 -30 26 -62 52 -104 52 -104 -10 -104 l-54 0 -572 510 c-315
280 -577 512 -583 516 -8 4 -9 -277 -4 -962z m534 241 c348 -315 337 -296 151
-271 -58 7 -106 12 -108 11 -2 -2 20 -42 48 -90 29 -47 50 -88 48 -90 -2 -3
-67 41 -145 95 -78 55 -144 100 -148 100 -5 0 -5 -76 -1 -170 4 -93 4 -170 1
-170 -3 0 -13 16 -21 35 -8 20 -26 61 -40 93 l-26 57 -64 -224 c-36 -124 -67
-227 -69 -230 -7 -7 -6 369 2 562 6 156 7 166 26 169 47 7 48 82 2 94 -25 6
-36 34 -13 34 21 0 48 32 48 57 0 16 -10 29 -30 41 l-30 17 0 104 0 104 30
-24 c16 -13 169 -150 339 -304z m2375 -265 c3 -321 2 -580 -2 -575 -5 6 -35
102 -67 215 -31 113 -60 209 -63 214 -2 5 -21 -30 -41 -77 -20 -48 -41 -90
-45 -94 -5 -4 -5 72 -1 170 l7 177 -148 -104 c-82 -58 -151 -103 -153 -101 -2
3 19 43 48 91 28 48 50 88 49 89 -2 1 -50 -4 -108 -11 -188 -26 -201 -47 177
294 184 167 336 302 338 300 1 -2 5 -266 9 -588z m-2160 -985 c160 -42 298
-78 307 -81 12 -3 18 5 22 32 7 44 42 84 73 84 36 0 81 -46 103 -106 22 -59
27 -143 11 -174 -26 -48 -29 -48 -450 66 l-399 107 -108 -31 c-59 -18 -130
-39 -158 -47 -36 -11 -46 -12 -37 -3 12 12 333 226 341 227 2 1 135 -33 295
-74z m2041 -40 c161 -105 196 -132 163 -120 -60 20 -287 85 -299 85 -8 0 -191
-48 -407 -106 -374 -101 -394 -105 -417 -90 -31 20 -39 52 -32 125 8 95 66
181 122 181 30 0 62 -38 70 -82 4 -21 8 -38 9 -38 0 0 136 36 301 80 165 43
303 79 307 79 4 1 86 -51 183 -114z m-2180 -286 c151 -11 328 -39 411 -64 44
-13 59 -24 95 -73 48 -62 139 -233 139 -259 0 -15 -20 -16 -207 -10 -115 4
-248 12 -298 18 -81 10 -95 15 -140 49 -88 68 -160 167 -201 276 -13 36 -24
67 -24 69 0 8 73 6 225 -6z m2061 -21 c-19 -99 -148 -280 -240 -337 -43 -27
-159 -40 -414 -48 l-213 -6 21 54 c26 67 87 171 138 236 39 49 41 50 138 71
162 36 337 57 513 61 l64 1 -7 -32z"/>
<path d="M2431 1224 c-74 -12 -137 -27 -142 -31 -4 -4 -30 -57 -58 -117 -47
-100 -49 -108 -28 -102 12 3 45 11 74 17 l52 12 88 -79 c48 -43 110 -100 137
-125 l51 -47 133 126 134 126 63 -17 c35 -9 68 -17 74 -17 8 0 -87 209 -104
228 -5 6 -291 52 -315 51 -14 -1 -85 -12 -159 -25z"/>
<path d="M2544 519 l-52 -40 52 -99 c28 -55 53 -100 56 -100 8 0 105 199 99
203 -2 2 -25 20 -50 40 -25 20 -48 37 -50 37 -2 0 -27 -18 -55 -41z"/>
</g>
</svg>
